<?xml version="1.0" standalone="no"?>
<svg xmlns:xlink="http://www.w3.org/1999/xlink" id="wave" style="transform:rotate(0deg); transition: 0.3s" viewBox="0 0 1440 490" version="1.1" xmlns="http://www.w3.org/2000/svg"><defs><linearGradient id="sw-gradient-0" x1="0" x2="0" y1="1" y2="0"><stop stop-color="rgba(239, 171.63, 87, 1)" offset="0%"/><stop stop-color="rgba(255, 171, 87, 1)" offset="100%"/></linearGradient></defs><path style="transform:translate(0, 0px); opacity:1" fill="url(#sw-gradient-0)" d="M0,98L26.7,114.3C53.3,131,107,163,160,196C213.3,229,267,261,320,285.8C373.3,310,427,327,480,343C533.3,359,587,376,640,383.8C693.3,392,747,392,800,334.8C853.3,278,907,163,960,155.2C1013.3,147,1067,245,1120,285.8C1173.3,327,1227,310,1280,269.5C1333.3,229,1387,163,1440,122.5C1493.3,82,1547,65,1600,106.2C1653.3,147,1707,245,1760,269.5C1813.3,294,1867,245,1920,220.5C1973.3,196,2027,196,2080,171.5C2133.3,147,2187,98,2240,98C2293.3,98,2347,147,2400,187.8C2453.3,229,2507,261,2560,245C2613.3,229,2667,163,2720,147C2773.3,131,2827,163,2880,220.5C2933.3,278,2987,359,3040,367.5C3093.3,376,3147,310,3200,261.3C3253.3,212,3307,180,3360,138.8C3413.3,98,3467,49,3520,81.7C3573.3,114,3627,229,3680,294C3733.3,359,3787,376,3813,383.8L3840,392L3840,490L3813.3,490C3786.7,490,3733,490,3680,490C3626.7,490,3573,490,3520,490C3466.7,490,3413,490,3360,490C3306.7,490,3253,490,3200,490C3146.7,490,3093,490,3040,490C2986.7,490,2933,490,2880,490C2826.7,490,2773,490,2720,490C2666.7,490,2613,490,2560,490C2506.7,490,2453,490,2400,490C2346.7,490,2293,490,2240,490C2186.7,490,2133,490,2080,490C2026.7,490,1973,490,1920,490C1866.7,490,1813,490,1760,490C1706.7,490,1653,490,1600,490C1546.7,490,1493,490,1440,490C1386.7,490,1333,490,1280,490C1226.7,490,1173,490,1120,490C1066.7,490,1013,490,960,490C906.7,490,853,490,800,490C746.7,490,693,490,640,490C586.7,490,533,490,480,490C426.7,490,373,490,320,490C266.7,490,213,490,160,490C106.7,490,53,490,27,490L0,490Z"/></svg>